<svg version="1.1" id="Layer_1" xmlns="http://www.w3.org/2000/svg" x="0" y="0" viewBox="0 0 256 256" xml:space="preserve">
    <style>
        .st1{fill:#fff}
    </style>
    <linearGradient id="XMLID_3_" gradientUnits="userSpaceOnUse" x1="221.4671" y1="-21.5786" x2="34.5329" y2="277.5786">
        <stop offset="0" stop-color="#1066b1"/>
        <stop offset="1" stop-color="#7c3b97"/>
    </linearGradient>
    <path id="XMLID_2_" fill="url(#XMLID_3_)" d="M0 0h256v256H0z"/>
    <g id="XMLID_239_">
        <path id="XMLID_238_" class="st1" d="M225.5 163H218v-33.8c0-5.2-2.1-10.4-5.9-14.1l-26.2-26.2c-3.7-3.8-8.8-5.9-14.1-5.9H158V67.6c0-8-6.9-14.6-15.4-14.6H43.4C34.9 53 28 59.5 28 67.6v90.9c0 8 6.9 14.6 15.4 14.6h5.1c-.3 1.6-.5 3.3-.5 5 0 13.8 11.2 25 25 25s25-11.2 25-25c0-1.7-.2-3.4-.5-5h61c-.3 1.6-.5 3.3-.5 5 0 13.8 11.2 25 25 25s25-11.2 25-25c0-1.7-.2-3.4-.5-5h18c1.4 0 2.5-1.1 2.5-2.5v-5c0-1.5-1.1-2.6-2.5-2.6zM73 193c-8.3 0-15-6.7-15-15s6.7-15 15-15 15 6.7 15 15-6.7 15-15 15zm75-30H92.9c-4.6-6-11.8-10-19.9-10s-15.3 4-19.9 10h-9.7c-3 0-5.4-2-5.4-4.6V67.6c0-2.5 2.4-4.6 5.4-4.6h99.1c3 0 5.4 2 5.4 4.6V163zm10-70h13.8c2.6 0 5.2 1.1 7.1 2.9l26.2 26.2c.2.2.3.6.6.9H158V93zm25 100c-8.3 0-15-6.7-15-15s6.7-15 15-15 15 6.7 15 15-6.7 15-15 15zm25-30h-5.1c-4.6-6-11.8-10-19.9-10s-15.3 4-19.9 10H158v-30h50v30z"/>
        <g id="XMLID_302_">
            <path id="XMLID_280_" class="st1" d="M52.8 96.8H69v4H57.6v5.2h10v3.9h-10v9.5h-4.7V96.8z"/>
            <path id="XMLID_282_" class="st1" d="M86.6 97.4c.8.4 1.5.9 2.1 1.6.5.6.9 1.2 1.1 1.9.3.7.4 1.5.4 2.4 0 1.1-.3 2.1-.8 3.2-.5 1-1.4 1.8-2.7 2.2 1 .4 1.8 1 2.2 1.8.4.8.7 2 .7 3.5v1.5c0 1 0 1.7.1 2.1.1.6.4 1 .9 1.3v.6h-5.2c-.1-.5-.2-.9-.3-1.2-.1-.6-.2-1.3-.2-2v-2.1c0-1.4-.3-2.4-.7-2.9-.5-.5-1.4-.7-2.7-.7h-4.6v8.9h-4.6V96.8H83c1.6 0 2.8.2 3.6.6zm-9.8 3.3v6.1h5.1c1 0 1.8-.1 2.3-.4.9-.4 1.3-1.3 1.3-2.6 0-1.4-.4-2.3-1.3-2.8-.5-.3-1.2-.4-2.2-.4h-5.2z"/>
            <path id="XMLID_285_" class="st1" d="M111.6 100.8h-12v4.8h11v3.9h-11v5.8h12.5v4.1H95V96.8h16.6v4z"/>
            <path id="XMLID_287_" class="st1" d="M132.6 100.8h-12v4.8h11v3.9h-11v5.8h12.5v4.1H116V96.8h16.6v4z"/>
        </g>
    </g>
</svg>
